<?xml version="1.0" encoding="UTF-8" standalone="no"?>
<svg
   xmlns:dc="http://purl.org/dc/elements/1.1/"
   xmlns:cc="http://creativecommons.org/ns#"
   xmlns:rdf="http://www.w3.org/1999/02/22-rdf-syntax-ns#"
   xmlns:svg="http://www.w3.org/2000/svg"
   xmlns="http://www.w3.org/2000/svg"
   viewBox="0 0 654.66669 509.33334"
   height="509.33334"
   width="654.66669"
   xml:space="preserve"
   id="svg2"
   version="1.1"><metadata
     id="metadata8"><rdf:RDF><cc:Work
         rdf:about=""><dc:format>image/svg+xml</dc:format><dc:type
           rdf:resource="http://purl.org/dc/dcmitype/StillImage" /></cc:Work></rdf:RDF></metadata><defs
     id="defs6"><clipPath
       id="clipPath18"
       clipPathUnits="userSpaceOnUse"><path
         id="path16"
         d="M 0,382 H 491 V 0 H 0 Z" /></clipPath></defs><g
     transform="matrix(1.3333333,0,0,-1.3333333,0,509.33333)"
     id="g10"><g
       id="g12"><g
         clip-path="url(#clipPath18)"
         id="g14"><g
           transform="translate(419.5879,213.3232)"
           id="g20"><path
             id="path22"
             style="fill:#000000;fill-opacity:1;fill-rule:nonzero;stroke:none"
             d="m 0,0 c -8.589,23.485 -15.883,46.036 -43.7,52.225 -26.169,4.758 -49.447,-1.809 -79.098,-39.008 -11.951,49.258 -60.074,86.651 -103.178,109.202 0,0 19.832,-61.337 16.58,-120.739 50.622,-18.794 101.718,-19.659 127.864,-17.935 -6.624,-10.825 -13.947,-21.779 -23.139,-32.702 -61.563,15.724 -145.451,53.511 -176.644,144.185 0,0 -29.026,-79.28 34.93,-182.301 -24.405,-19.914 -63.381,-28.119 -124.177,-13.948 22.906,-20.24 70.508,-32.966 102.57,-34.203 -18.017,-0.898 -38.664,-22.066 -45.119,-31.841 50.177,14.89 83.791,13.132 121.102,22.691 1.061,0.27 2.123,0.549 3.191,0.84 53.436,14.547 78.588,52.527 109.083,82.07 30.507,29.537 71.578,38.008 102.121,26.865 0,0 -18.059,22.771 -22.386,34.599" /></g></g></g></g></svg>